<mxfile host="app.diagrams.net" modified="2021-11-04T13:55:00.216Z" agent="5.0 (Windows NT 10.0; Win64; x64) AppleWebKit/537.36 (KHTML, like Gecko) Chrome/95.0.4638.69 Safari/537.36" etag="bcYWG0_zDlnEHOLE7gyG" version="15.6.8" type="github">
  <diagram id="7ovDVvfwW2YOfsgbZOOQ" name="Page-1">
    <mxGraphModel dx="1422" dy="762" grid="1" gridSize="10" guides="1" tooltips="1" connect="1" arrows="1" fold="1" page="1" pageScale="1" pageWidth="850" pageHeight="1100" math="0" shadow="0">
      <root>
        <mxCell id="0" />
        <mxCell id="1" parent="0" />
        <mxCell id="tBe-JlZRU-60ile3FUd0-3" value="경상대학생" style="shape=umlActor;verticalLabelPosition=bottom;verticalAlign=top;html=1;outlineConnect=0;fontColor=default;strokeColor=default;fillColor=default;" parent="1" vertex="1">
          <mxGeometry x="65" y="184" width="30" height="60" as="geometry" />
        </mxCell>
        <mxCell id="_5kEuYPEl7YE4_USx0_l-4" value="" style="group" parent="1" vertex="1" connectable="0">
          <mxGeometry x="158" y="130" width="300" height="370" as="geometry" />
        </mxCell>
        <mxCell id="_5kEuYPEl7YE4_USx0_l-1" value="" style="rounded=0;whiteSpace=wrap;html=1;" parent="_5kEuYPEl7YE4_USx0_l-4" vertex="1">
          <mxGeometry y="33.63636363636363" width="300" height="336.3636363636363" as="geometry" />
        </mxCell>
        <mxCell id="_5kEuYPEl7YE4_USx0_l-9" value="공지사항&lt;br&gt;푸시알림 수신 설정" style="ellipse;whiteSpace=wrap;html=1;" parent="_5kEuYPEl7YE4_USx0_l-4" vertex="1">
          <mxGeometry x="72" y="171.82" width="120" height="60" as="geometry" />
        </mxCell>
        <mxCell id="_5kEuYPEl7YE4_USx0_l-3" value="경상대 알림 앱" style="rounded=1;whiteSpace=wrap;html=1;" parent="_5kEuYPEl7YE4_USx0_l-4" vertex="1">
          <mxGeometry x="90" y="10" width="120" height="40" as="geometry" />
        </mxCell>
        <mxCell id="_5kEuYPEl7YE4_USx0_l-7" value="푸시알림" style="ellipse;whiteSpace=wrap;html=1;" parent="1" vertex="1">
          <mxGeometry x="221" y="403" width="120" height="60" as="geometry" />
        </mxCell>
        <mxCell id="_5kEuYPEl7YE4_USx0_l-10" value="공지사항 열람" style="ellipse;whiteSpace=wrap;html=1;" parent="1" vertex="1">
          <mxGeometry x="224" y="199" width="120" height="60" as="geometry" />
        </mxCell>
        <mxCell id="_5kEuYPEl7YE4_USx0_l-11" value="브라우저앱&lt;br&gt;(사파리, 크롬 등)" style="shape=umlActor;verticalLabelPosition=bottom;verticalAlign=top;html=1;outlineConnect=0;fontColor=default;strokeColor=default;fillColor=default;" parent="1" vertex="1">
          <mxGeometry x="65" y="381" width="30" height="60" as="geometry" />
        </mxCell>
        <mxCell id="_5kEuYPEl7YE4_USx0_l-12" value="데이터베이스 서버&lt;br&gt;(파이어베이스)" style="shape=umlActor;verticalLabelPosition=bottom;verticalAlign=top;html=1;outlineConnect=0;fontColor=default;strokeColor=default;fillColor=default;" parent="1" vertex="1">
          <mxGeometry x="440" y="10" width="30" height="60" as="geometry" />
        </mxCell>
        <mxCell id="_5kEuYPEl7YE4_USx0_l-13" value="학과 홈페이지" style="shape=umlActor;verticalLabelPosition=bottom;verticalAlign=top;html=1;outlineConnect=0;fontColor=default;strokeColor=default;fillColor=default;" parent="1" vertex="1">
          <mxGeometry x="785" y="218" width="30" height="60" as="geometry" />
        </mxCell>
        <mxCell id="_5kEuYPEl7YE4_USx0_l-14" value="기숙사 홈페이지" style="shape=umlActor;verticalLabelPosition=bottom;verticalAlign=top;html=1;outlineConnect=0;fontColor=default;strokeColor=default;fillColor=default;" parent="1" vertex="1">
          <mxGeometry x="785" y="315" width="30" height="60" as="geometry" />
        </mxCell>
        <mxCell id="_5kEuYPEl7YE4_USx0_l-15" value="푸시 알림 서버&lt;br&gt;(원시그널)" style="shape=umlActor;verticalLabelPosition=bottom;verticalAlign=top;html=1;outlineConnect=0;fontColor=default;strokeColor=default;fillColor=default;" parent="1" vertex="1">
          <mxGeometry x="440" y="540" width="30" height="60" as="geometry" />
        </mxCell>
        <mxCell id="_5kEuYPEl7YE4_USx0_l-16" value="" style="endArrow=none;html=1;rounded=0;exitX=1;exitY=0.3333333333333333;exitDx=0;exitDy=0;exitPerimeter=0;entryX=0;entryY=0.5;entryDx=0;entryDy=0;" parent="1" source="tBe-JlZRU-60ile3FUd0-3" target="_5kEuYPEl7YE4_USx0_l-10" edge="1">
          <mxGeometry width="50" height="50" relative="1" as="geometry">
            <mxPoint x="560" y="420" as="sourcePoint" />
            <mxPoint x="610" y="370" as="targetPoint" />
          </mxGeometry>
        </mxCell>
        <mxCell id="_5kEuYPEl7YE4_USx0_l-17" value="" style="endArrow=none;html=1;rounded=0;exitX=1;exitY=0.3333333333333333;exitDx=0;exitDy=0;exitPerimeter=0;entryX=0;entryY=0.5;entryDx=0;entryDy=0;" parent="1" source="_5kEuYPEl7YE4_USx0_l-11" target="_5kEuYPEl7YE4_USx0_l-10" edge="1">
          <mxGeometry width="50" height="50" relative="1" as="geometry">
            <mxPoint x="560" y="420" as="sourcePoint" />
            <mxPoint x="610" y="370" as="targetPoint" />
          </mxGeometry>
        </mxCell>
        <mxCell id="_5kEuYPEl7YE4_USx0_l-18" value="" style="endArrow=none;html=1;rounded=0;exitX=1;exitY=0.5;exitDx=0;exitDy=0;entryX=0;entryY=1;entryDx=0;entryDy=0;entryPerimeter=0;" parent="1" source="_5kEuYPEl7YE4_USx0_l-10" target="_5kEuYPEl7YE4_USx0_l-12" edge="1">
          <mxGeometry width="50" height="50" relative="1" as="geometry">
            <mxPoint x="560" y="420" as="sourcePoint" />
            <mxPoint x="620" y="370" as="targetPoint" />
          </mxGeometry>
        </mxCell>
        <mxCell id="_5kEuYPEl7YE4_USx0_l-23" value="" style="endArrow=none;html=1;rounded=0;exitX=1;exitY=0.3333333333333333;exitDx=0;exitDy=0;exitPerimeter=0;entryX=0;entryY=0.5;entryDx=0;entryDy=0;" parent="1" source="tBe-JlZRU-60ile3FUd0-3" target="_5kEuYPEl7YE4_USx0_l-7" edge="1">
          <mxGeometry width="50" height="50" relative="1" as="geometry">
            <mxPoint x="560" y="420" as="sourcePoint" />
            <mxPoint x="610" y="370" as="targetPoint" />
          </mxGeometry>
        </mxCell>
        <mxCell id="_5kEuYPEl7YE4_USx0_l-24" value="" style="endArrow=none;html=1;rounded=0;exitX=1;exitY=0.3333333333333333;exitDx=0;exitDy=0;exitPerimeter=0;entryX=0;entryY=0.5;entryDx=0;entryDy=0;" parent="1" source="_5kEuYPEl7YE4_USx0_l-11" target="_5kEuYPEl7YE4_USx0_l-7" edge="1">
          <mxGeometry width="50" height="50" relative="1" as="geometry">
            <mxPoint x="40" y="500" as="sourcePoint" />
            <mxPoint x="90" y="450" as="targetPoint" />
          </mxGeometry>
        </mxCell>
        <mxCell id="_5kEuYPEl7YE4_USx0_l-28" value="" style="endArrow=none;html=1;rounded=0;exitX=1;exitY=0.3333333333333333;exitDx=0;exitDy=0;exitPerimeter=0;entryX=0;entryY=0.5;entryDx=0;entryDy=0;" parent="1" source="tBe-JlZRU-60ile3FUd0-3" target="_5kEuYPEl7YE4_USx0_l-9" edge="1">
          <mxGeometry width="50" height="50" relative="1" as="geometry">
            <mxPoint x="560" y="420" as="sourcePoint" />
            <mxPoint x="610" y="370" as="targetPoint" />
          </mxGeometry>
        </mxCell>
        <mxCell id="_5kEuYPEl7YE4_USx0_l-35" value="" style="rounded=0;whiteSpace=wrap;html=1;" parent="1" vertex="1">
          <mxGeometry x="455" y="163.63636363636363" width="300" height="336.3636363636363" as="geometry" />
        </mxCell>
        <mxCell id="_5kEuYPEl7YE4_USx0_l-36" value="경상대 알림 서버" style="rounded=1;whiteSpace=wrap;html=1;" parent="1" vertex="1">
          <mxGeometry x="550" y="140" width="120" height="40" as="geometry" />
        </mxCell>
        <mxCell id="_5kEuYPEl7YE4_USx0_l-38" value="" style="endArrow=none;html=1;rounded=0;exitX=0.5;exitY=0;exitDx=0;exitDy=0;exitPerimeter=0;entryX=1;entryY=0.5;entryDx=0;entryDy=0;" parent="1" source="_5kEuYPEl7YE4_USx0_l-15" target="_5kEuYPEl7YE4_USx0_l-7" edge="1">
          <mxGeometry width="50" height="50" relative="1" as="geometry">
            <mxPoint x="540" y="650" as="sourcePoint" />
            <mxPoint x="590" y="600" as="targetPoint" />
          </mxGeometry>
        </mxCell>
        <mxCell id="_5kEuYPEl7YE4_USx0_l-39" value="" style="endArrow=none;html=1;rounded=0;exitX=1;exitY=0.5;exitDx=0;exitDy=0;entryX=0.5;entryY=0;entryDx=0;entryDy=0;entryPerimeter=0;" parent="1" source="_5kEuYPEl7YE4_USx0_l-9" target="_5kEuYPEl7YE4_USx0_l-15" edge="1">
          <mxGeometry width="50" height="50" relative="1" as="geometry">
            <mxPoint x="560" y="390" as="sourcePoint" />
            <mxPoint x="610" y="340" as="targetPoint" />
          </mxGeometry>
        </mxCell>
        <mxCell id="_5kEuYPEl7YE4_USx0_l-40" value="" style="endArrow=none;html=1;rounded=0;entryX=1;entryY=1;entryDx=0;entryDy=0;entryPerimeter=0;exitX=0;exitY=0.5;exitDx=0;exitDy=0;" parent="1" source="ObBYXNewDXtKop2tSZhH-8" target="_5kEuYPEl7YE4_USx0_l-12" edge="1">
          <mxGeometry width="50" height="50" relative="1" as="geometry">
            <mxPoint x="547.573593128807" y="218.25126265847075" as="sourcePoint" />
            <mxPoint x="610" y="340" as="targetPoint" />
          </mxGeometry>
        </mxCell>
        <mxCell id="_5kEuYPEl7YE4_USx0_l-41" value="" style="endArrow=none;html=1;rounded=0;exitX=0.5;exitY=0;exitDx=0;exitDy=0;exitPerimeter=0;entryX=0;entryY=0.5;entryDx=0;entryDy=0;" parent="1" source="_5kEuYPEl7YE4_USx0_l-15" target="ObBYXNewDXtKop2tSZhH-8" edge="1">
          <mxGeometry width="50" height="50" relative="1" as="geometry">
            <mxPoint x="560" y="390" as="sourcePoint" />
            <mxPoint x="534.8959235991435" y="344.10407640085646" as="targetPoint" />
          </mxGeometry>
        </mxCell>
        <mxCell id="_5kEuYPEl7YE4_USx0_l-42" value="" style="endArrow=none;html=1;rounded=0;entryX=0;entryY=0.3333333333333333;entryDx=0;entryDy=0;entryPerimeter=0;exitX=1;exitY=0.5;exitDx=0;exitDy=0;" parent="1" source="ObBYXNewDXtKop2tSZhH-8" target="_5kEuYPEl7YE4_USx0_l-13" edge="1">
          <mxGeometry width="50" height="50" relative="1" as="geometry">
            <mxPoint x="650" y="243" as="sourcePoint" />
            <mxPoint x="610" y="340" as="targetPoint" />
          </mxGeometry>
        </mxCell>
        <mxCell id="_5kEuYPEl7YE4_USx0_l-43" value="" style="endArrow=none;html=1;rounded=0;entryX=1;entryY=0.5;entryDx=0;entryDy=0;exitX=0;exitY=0.3333333333333333;exitDx=0;exitDy=0;exitPerimeter=0;" parent="1" source="_5kEuYPEl7YE4_USx0_l-14" target="ObBYXNewDXtKop2tSZhH-8" edge="1">
          <mxGeometry width="50" height="50" relative="1" as="geometry">
            <mxPoint x="560" y="390" as="sourcePoint" />
            <mxPoint x="650" y="243" as="targetPoint" />
          </mxGeometry>
        </mxCell>
        <mxCell id="ObBYXNewDXtKop2tSZhH-2" value="타이머" style="shape=umlActor;verticalLabelPosition=bottom;verticalAlign=top;html=1;outlineConnect=0;fontColor=default;strokeColor=default;fillColor=default;" vertex="1" parent="1">
          <mxGeometry x="785" y="420" width="30" height="60" as="geometry" />
        </mxCell>
        <mxCell id="ObBYXNewDXtKop2tSZhH-3" value="" style="endArrow=none;html=1;rounded=0;exitX=0;exitY=0.3333333333333333;exitDx=0;exitDy=0;exitPerimeter=0;entryX=1;entryY=0.5;entryDx=0;entryDy=0;" edge="1" parent="1" source="ObBYXNewDXtKop2tSZhH-2" target="ObBYXNewDXtKop2tSZhH-8">
          <mxGeometry width="50" height="50" relative="1" as="geometry">
            <mxPoint x="750" y="640" as="sourcePoint" />
            <mxPoint x="650" y="243" as="targetPoint" />
          </mxGeometry>
        </mxCell>
        <mxCell id="ObBYXNewDXtKop2tSZhH-8" value="공지사항 크롤링" style="ellipse;whiteSpace=wrap;html=1;" vertex="1" parent="1">
          <mxGeometry x="545" y="296.82" width="120" height="70" as="geometry" />
        </mxCell>
      </root>
    </mxGraphModel>
  </diagram>
</mxfile>
